HIERARCHY
ROOT Hips
{
	OFFSET -3.958830 18.904000 13.208200
	CHANNELS 6 Xposition Yposition Zposition Zrotation Yrotation Xrotation 
	JOINT LHipJoint
	{
		OFFSET 0.000000 0.000000 0.000000
		CHANNELS 3 Zrotation Yrotation Xrotation
		JOINT LeftUpLeg
		{
			OFFSET 1.800000 -1.400000 0.085000
			CHANNELS 3 Zrotation Yrotation Xrotation
			JOINT LeftLeg
			{
				OFFSET 2.215000 -6.000000 0.000000
				CHANNELS 3 Zrotation Yrotation Xrotation
				JOINT LeftFoot
				{
					OFFSET 2.500000 -6.900000 0.000000
					CHANNELS 3 Zrotation Yrotation Xrotation
					JOINT LeftToeBase
					{
						OFFSET 0.200000 -0.500000 1.950000
						CHANNELS 3 Zrotation Yrotation Xrotation
						End Site
						{
							OFFSET 0.000000 0.000000 0.000000
						}
					}
				}
			}
		}
	}
	JOINT RHipJoint
	{
		OFFSET 0.000000 0.000000 0.000000
		CHANNELS 3 Zrotation Yrotation Xrotation
		JOINT RightUpLeg
		{
			OFFSET -1.800000 -1.400000 0.085000
			CHANNELS 3 Zrotation Yrotation Xrotation
			JOINT RightLeg
			{
				OFFSET -2.215000 -6.000000 0.000000
				CHANNELS 3 Zrotation Yrotation Xrotation
				JOINT RightFoot
				{
					OFFSET -2.500000 -6.900000 0.000000
					CHANNELS 3 Zrotation Yrotation Xrotation
					JOINT RightToeBase
					{
						OFFSET -0.200000 -0.500000 1.950000
						CHANNELS 3 Zrotation Yrotation Xrotation
						End Site
						{
							OFFSET 0.000000 0.000000 0.000000
						}
					}
				}
			}
		}
	}
	JOINT LowerBack
	{
		OFFSET 0.000000 0.000000 0.000000
		CHANNELS 3 Zrotation Yrotation Xrotation
		JOINT Spine
		{
			OFFSET -0.087000 1.940000 -0.288900
			CHANNELS 3 Zrotation Yrotation Xrotation
			JOINT Spine1
			{
				OFFSET 0.000000 1.950000 0.060000
				CHANNELS 3 Zrotation Yrotation Xrotation
				JOINT Neck
				{
					OFFSET 0.000000 0.000000 0.000000
					CHANNELS 3 Zrotation Yrotation Xrotation
					JOINT Neck1
					{
						OFFSET 0.000000 1.600000 0.340000
						CHANNELS 3 Zrotation Yrotation Xrotation
						JOINT Head
						{
							OFFSET 0.000000 1.667000 -0.240000
							CHANNELS 3 Zrotation Yrotation Xrotation
							End Site
							{
								OFFSET 0.000000 0.000000 0.000000
							}
						}
					}
				}
				JOINT LeftShoulder
				{
					OFFSET 0.000000 0.000000 0.000000
					CHANNELS 3 Zrotation Yrotation Xrotation
					JOINT LeftArm
					{
						OFFSET 2.700000 1.550000 -0.730000
						CHANNELS 3 Zrotation Yrotation Xrotation
						JOINT LeftForeArm
						{
							OFFSET 5.450000 0.000000 0.000000
							CHANNELS 3 Zrotation Yrotation Xrotation
							JOINT LeftHand
							{
								OFFSET 3.450000 0.000000 0.000000
								CHANNELS 3 Zrotation Yrotation Xrotation
								JOINT LeftHandIndex1
								{
									OFFSET 0.750000 0.000000 0.000000
									CHANNELS 3 Zrotation Yrotation Xrotation
									End Site
									{
										OFFSET 0.000000 0.000000 0.000000
									}
								}
							}
						}
					}
				}
				JOINT RightShoulder
				{
					OFFSET 0.000000 0.000000 0.000000
					CHANNELS 3 Zrotation Yrotation Xrotation
					JOINT RightArm
					{
						OFFSET -2.700000 1.550000 -0.730000
						CHANNELS 3 Zrotation Yrotation Xrotation
						JOINT RightForeArm
						{
							OFFSET -5.450000 0.000000 0.000000
							CHANNELS 3 Zrotation Yrotation Xrotation
							JOINT RightHand
							{
								OFFSET -3.450000 0.000000 0.000000
								CHANNELS 3 Zrotation Yrotation Xrotation
								JOINT RightHandIndex1
								{
									OFFSET -0.750000 0.000000 0.000000
									CHANNELS 3 Zrotation Yrotation Xrotation
									End Site
									{
										OFFSET 0.000000 0.000000 0.000000
									}
								}
							}
						}
					}
				}
			}
		}
	}
}
MOTION
Frames: 12
Frame Time: 0.016667
-0.426420 16.719120 -2.167260 -1.187147 11.013960 -2.526719 -14.831254 13.412535 2.847508 3.794459 -0.268143 -3.726063 -6.083509 5.762670 11.710509 -0.502803 4.827426 3.257790 -0.047250 -0.598160 0.081470 18.457693 -11.210960 3.174214 -4.358076 1.143698 -11.702070 7.339499 -4.388045 4.589146 -0.294793 -3.161158 3.375549 -0.295230 0.655220 0.455700 -4.591276 -1.041576 -7.882971 8.510510 0.686048 11.531835 4.680641 -0.873087 -5.668765 -10.098334 0.904507 -9.344001 -0.978049 5.824366 38.023714 -2.889470 8.923350 -8.271710 6.155194 -3.259619 1.056929 17.348470 1.867653 5.007224 89.082009 -75.049251 -54.359416 -3.060443 0.425856 0.786770 0.301200 -0.042070 0.212250 13.475115 -0.308564 4.512985 61.527333 -0.868987 -6.433371 21.503110 30.882098 3.710465 1.989182 -1.161966 -0.461480 0.345690 0.311030 -0.233320 
-0.448230 16.727600 -2.166780 -1.120890 10.892782 -2.851509 -14.888120 13.503189 2.850550 3.763369 -0.263702 -3.726167 -5.531354 5.705447 12.035554 -0.516148 4.814705 3.269427 -0.053760 -0.620910 0.104090 18.392588 -11.192982 3.169108 -4.117060 1.096603 -11.401392 7.100903 -4.398013 4.901292 -0.282922 -3.144174 3.395171 -0.303410 0.647860 0.426010 -4.411497 -1.229980 -7.884170 6.911667 0.807880 11.769773 6.206385 -0.711150 -5.824577 -10.188158 1.079951 -9.534437 -0.843678 5.917444 38.783194 -2.852790 9.053250 -7.518660 6.400582 -4.606717 0.781448 18.056904 3.337717 3.726859 73.651229 -74.971973 -41.957992 -3.481282 1.673703 0.803290 0.291930 -0.049580 0.205960 13.726206 0.844892 5.035063 60.706252 -1.073872 -6.657590 21.341865 30.164109 3.469483 1.995758 -1.146858 -0.487250 0.358500 0.301970 -0.251270 
-0.489670 16.730470 -2.162520 -0.890562 10.510962 -3.645306 -14.972118 13.597472 2.850450 3.793496 -0.213785 -3.502177 -5.067865 5.730205 12.656134 -0.535222 4.859242 3.262088 -0.043170 -0.618070 0.144760 18.300737 -11.196279 3.146713 -3.842354 0.975326 -10.814100 6.607263 -4.444345 5.519379 -0.304782 -3.134972 3.392204 -0.297170 0.635080 0.417060 -4.140461 -1.403925 -7.886229 4.034745 1.162128 13.245253 8.418077 -0.330212 -5.595327 -10.406565 1.107559 -9.357064 -0.824314 6.316475 38.240773 -3.189570 9.387800 -9.869780 6.723620 -4.158232 1.219154 20.365970 3.353620 4.048344 52.032873 -65.377391 -23.333676 -3.965534 2.783528 0.845220 0.268640 -0.023520 0.202800 14.318254 0.527133 4.371039 59.742491 -0.717544 -6.915627 21.159857 28.846051 3.161770 2.008746 -1.101158 -0.511080 0.390150 0.290190 -0.266710 
-0.537330 16.733740 -2.168110 -0.320307 9.660446 -5.296894 -15.095580 13.780745 2.901214 3.834819 0.031000 -2.371382 -4.928026 5.978210 13.441292 -0.542006 5.017652 3.205894 -0.045590 -0.638130 0.191630 18.160615 -11.171656 3.082515 -3.953484 0.704613 -9.394218 5.989861 -4.603480 6.660996 -0.335306 -3.157563 3.395061 -0.306420 0.585870 0.363460 -3.735616 -1.801268 -7.909434 0.271761 1.671260 15.416439 10.685278 0.239874 -4.532196 -10.365757 0.761477 -9.919663 -1.708152 6.639595 39.239472 -3.496750 9.457130 -12.944170 6.854408 -5.152267 1.981052 22.122941 3.354474 2.829528 41.404656 -47.381467 -11.454750 -4.065223 2.890262 0.937180 0.202670 0.009760 0.178310 14.545469 2.172146 4.884917 59.280430 -0.676047 -8.305662 22.282597 30.722156 3.424396 1.999057 -1.049353 -0.561330 0.439750 0.286630 -0.307080 
-0.584670 16.744900 -2.171190 -0.184498 8.878238 -6.026905 -15.293403 14.025790 2.941919 4.254234 0.128780 -2.318948 -4.970489 6.026316 13.104063 -0.518825 5.081146 3.188324 -0.043190 -0.638930 0.223790 17.977464 -10.962246 2.984962 -3.422900 0.674294 -8.831345 5.220575 -4.582724 7.737580 -0.343574 -3.102555 3.406850 -0.313850 0.568750 0.371570 -3.158300 -2.593250 -7.828947 -3.729483 2.022726 15.753468 13.571973 0.459391 -3.045281 -9.829668 0.268887 -10.074126 -2.794951 7.499131 39.165999 -5.083440 10.377090 -14.521760 6.065367 -5.901350 2.436912 24.534209 3.847426 1.563394 40.634754 -32.008120 -7.098645 -4.210144 2.812521 0.958800 0.187200 0.042880 0.174700 14.814580 3.902001 5.296316 58.174852 0.078616 -8.885874 22.242792 31.009645 3.343900 2.010342 -1.036720 -0.561200 0.450530 0.275590 -0.310960 
-0.627860 16.751790 -2.175190 -0.601969 8.407471 -6.700391 -15.422451 14.264980 2.940578 5.084354 0.162570 -2.771991 -4.818923 6.142896 13.555409 -0.497089 5.119681 3.156903 -0.029060 -0.642310 0.259740 17.843954 -10.802349 2.956374 -2.668624 0.747535 -8.458190 5.103315 -4.650099 8.885784 -0.360812 -3.052852 3.414838 -0.333890 0.525020 0.364850 -2.766708 -3.228754 -7.803436 -5.975564 2.258604 16.061477 15.608875 0.706179 -2.638343 -9.220955 -0.802492 -10.809659 -5.058842 9.069322 40.552126 -4.771890 11.191930 -15.481340 4.245302 -7.567903 3.310144 26.520947 5.184752 0.378505 44.978550 -19.998623 -4.996035 -4.295183 2.686350 0.999940 0.137860 0.075320 0.163760 15.875158 6.650126 6.282073 56.567567 0.207708 -9.449401 20.288027 30.485596 2.815657 2.023010 -1.010302 -0.552610 0.440310 0.263480 -0.325270 
-0.666890 16.749560 -2.164230 -0.733909 7.642086 -6.600353 -15.474857 14.359050 2.939579 5.186671 0.178580 -3.311994 -4.472871 6.049720 13.498788 -0.499627 5.048452 3.182825 -0.032050 -0.646840 0.259540 17.785331 -10.763661 2.944386 -2.261784 0.837624 -8.691504 4.982324 -4.674261 9.748069 -0.357934 -3.026283 3.425134 -0.345980 0.523090 0.360280 -2.585490 -3.441578 -7.771488 -7.986043 2.395667 15.929143 16.907280 0.867981 -3.896439 -8.958908 -1.143327 -10.968452 -5.710727 9.958967 40.714434 -4.430240 11.820890 -15.683960 3.062302 -7.621936 3.475450 27.147796 5.413970 -0.298123 52.490421 -12.198936 -3.512486 -4.342508 2.627781 1.012170 0.127250 0.080980 0.167410 16.885946 6.883566 6.575488 55.132898 -1.008795 -9.862250 20.406541 31.321096 3.025392 2.016763 -1.019600 -0.554600 0.436190 0.255990 -0.323780 
-0.696670 16.752530 -2.153070 -1.198357 7.047142 -6.836536 -15.377602 14.298206 2.951249 5.466367 0.184904 -3.187018 -4.337606 5.942712 13.147269 -0.474047 4.917013 3.210987 -0.004410 -0.613410 0.275090 17.846457 -10.905749 3.037404 -1.729193 0.864375 -8.672222 5.158884 -4.730599 10.040824 -0.389922 -3.025797 3.419532 -0.355580 0.464760 0.343130 -2.799177 -3.061606 -7.888562 -7.733013 2.028869 17.058983 16.007289 0.871042 -7.209225 -9.163490 -1.404874 -11.398115 -6.502549 10.384891 42.667803 -2.655020 11.664810 -15.798160 2.403234 -7.565574 3.500583 26.935916 4.881932 -0.616821 61.265019 -7.647812 -2.066712 -4.250646 2.647391 1.033550 0.071690 0.110310 0.165600 18.014910 6.330970 6.802966 55.310956 -3.220428 -10.560385 19.816402 32.334584 3.043912 2.031901 -1.028178 -0.524810 0.400360 0.224290 -0.323700 
-0.728050 16.766930 -2.141590 -1.626886 6.172295 -7.232280 -15.272953 14.233298 2.964019 5.775664 0.231209 -2.780318 -4.212835 5.855749 12.771090 -0.455746 4.828106 3.236551 0.014710 -0.596320 0.300370 17.913780 -11.044450 3.152272 -1.286087 0.778745 -8.133592 5.386057 -4.772779 9.534621 -0.444743 -3.023402 3.420896 -0.371710 0.418260 0.325900 -3.021657 -2.659351 -8.019819 -7.497983 1.665225 18.461884 15.154022 0.904977 -11.302931 -9.390732 -1.624151 -11.800066 -7.563344 11.109140 45.846593 -0.472830 11.666270 -16.774570 1.581352 -7.142404 3.289893 27.091117 3.815545 -0.336271 69.267505 -5.283449 -0.645528 -4.124182 2.623610 1.089880 0.010470 0.157390 0.165800 19.341355 5.239488 7.118748 55.201070 -6.114615 -11.539111 19.688308 35.220070 3.496471 2.026607 -1.017949 -0.517050 0.397760 0.197770 -0.329570 
-0.755220 16.752700 -2.130540 -2.031773 5.461794 -7.578742 -15.214797 14.191198 2.940216 6.410411 0.296293 -2.644068 -4.489889 6.022426 13.104212 -0.439290 4.882835 3.213620 0.016680 -0.595500 0.304610 17.952900 -11.142216 3.191537 -1.001936 0.876494 -8.117012 5.793575 -4.946023 10.342627 -0.468320 -3.082028 3.396141 -0.378610 0.413580 0.334820 -3.136028 -2.371251 -8.045730 -7.800698 1.751290 18.975115 14.973481 1.050789 -12.917741 -9.715189 -1.250447 -11.924124 -6.844342 11.218481 46.718554 0.702160 11.810320 -17.030570 1.952525 -7.145192 3.287148 26.339255 2.478656 -0.846126 75.036795 -2.684833 0.790061 -4.113827 2.645785 1.101240 0.004330 0.170210 0.164630 19.569884 4.517755 7.033792 54.782805 -6.995921 -11.855285 19.451187 37.157332 3.780916 2.011350 -1.028969 -0.510700 0.390940 0.195650 -0.331530 
-0.787330 16.739100 -2.135890 -2.435594 5.044761 -8.195772 -15.222957 14.243500 2.874014 7.094136 0.394879 -2.836865 -4.500144 6.323679 14.392543 -0.452523 5.047294 3.154294 -0.009940 -0.639510 0.295460 17.942736 -11.118764 3.229010 -0.645211 0.837688 -7.442526 6.044287 -5.035571 10.195855 -0.480419 -3.142918 3.377883 -0.391680 0.439050 0.341020 -3.092439 -2.455447 -8.025067 -8.606640 1.973057 19.387347 15.497661 1.244508 -13.091367 -9.833803 -1.149253 -11.927121 -6.761784 11.443877 46.870630 0.948910 12.009670 -17.048630 1.560202 -7.436867 3.190525 26.308485 1.270474 -1.447705 79.084102 -0.574181 1.982374 -4.137827 2.628873 1.117430 0.017880 0.158830 0.154950 20.336293 4.544495 7.212288 54.149742 -7.580755 -12.954943 18.038672 41.292639 3.887394 1.955029 -1.048139 -0.535910 0.409530 0.226250 -0.343170 
-0.827520 16.711200 -2.151750 -2.154902 4.782030 -9.008785 -15.267134 14.307161 2.816731 7.338682 0.571735 -2.930832 -4.738316 6.792420 16.105135 -0.429872 5.273073 3.075230 -0.029850 -0.662030 0.291130 17.909546 -11.069730 3.188116 -1.070386 0.841341 -7.000535 6.547024 -5.221699 10.660285 -0.493815 -3.228859 3.341219 -0.398480 0.457170 0.352360 -2.973001 -2.646895 -7.932519 -10.624319 2.703416 19.918459 16.505445 1.507816 -11.659835 -10.033543 -1.067910 -11.688381 -6.460740 11.466893 45.680414 0.286650 12.400490 -18.436420 1.872905 -7.707570 3.127516 26.084039 0.491989 -2.531907 79.628251 1.522023 2.759389 -4.184721 2.627485 1.118790 0.027020 0.158180 0.147700 20.559172 4.957652 7.219038 54.302057 -6.484354 -14.234888 14.725912 46.194951 3.224952 1.913478 -1.065761 -0.546430 0.426260 0.245790 -0.343150 
